<?xml version="1.0" standalone="no"?>
<!DOCTYPE svg PUBLIC "-//W3C//DTD SVG 20010904//EN"
 "http://www.w3.org/TR/2001/REC-SVG-20010904/DTD/svg10.dtd">
<svg version="1.0" xmlns="http://www.w3.org/2000/svg"
 width="500.000000pt" height="500.000000pt" viewBox="0 0 500.000000 500.000000"
 preserveAspectRatio="xMidYMid meet">

<g transform="translate(0.000000,500.000000) scale(0.100000,-0.100000)"
fill="#000000" stroke="none">
<path d="M625 3086 c-41 -18 -92 -77 -104 -123 -27 -94 -7 -216 82 -518 98
-328 178 -479 232 -435 19 16 42 96 51 180 3 36 14 81 24 100 29 57 95 125
147 150 26 13 57 27 67 33 30 15 130 11 164 -7 18 -9 54 -36 82 -61 127 -113
439 -288 640 -360 143 -51 473 -126 488 -111 3 4 -1 6 -10 6 -11 0 -15 13 -16
50 -1 59 -6 70 -33 70 -29 0 -290 56 -394 84 -192 53 -424 154 -568 248 -158
104 -331 136 -437 81 -72 -37 -142 -118 -197 -229 -25 -52 -52 -94 -60 -94
-52 0 -163 424 -163 624 0 126 13 167 59 186 44 18 94 0 194 -68 140 -95 272
-104 390 -25 50 34 47 46 -6 23 -51 -23 -141 -35 -190 -26 -44 8 -110 60 -166
130 -73 93 -187 131 -276 92z"/>
<path d="M4419 2484 c-16 -19 -188 -132 -248 -163 -140 -71 -360 -146 -586
-201 -182 -43 -172 -37 -174 -109 -1 -36 3 -61 9 -61 28 0 200 43 296 75 134
44 332 142 445 221 74 51 295 253 278 254 -4 0 -12 -7 -20 -16z"/>
<path d="M2754 2285 c0 -49 1 -71 3 -48 2 23 2 64 0 90 -2 26 -3 8 -3 -42z"/>
<path d="M2120 2275 l0 -75 33 1 c30 1 30 2 7 8 -23 7 -25 11 -25 74 0 37 -3
67 -7 67 -5 0 -8 -34 -8 -75z"/>
<path d="M2883 2275 c0 -44 2 -61 4 -37 2 23 2 59 0 80 -2 20 -4 1 -4 -43z"/>
<path d="M2951 2332 c12 -21 12 -25 -6 -39 -11 -8 -14 -13 -6 -11 29 8 37 36
17 55 -18 17 -18 17 -5 -5z"/>
<path d="M2234 2320 c22 -34 20 -57 -9 -85 -13 -14 -20 -25 -15 -25 14 0 50
51 50 70 0 10 -9 28 -21 41 l-21 24 16 -25z"/>
<path d="M3339 2313 c-3 -10 -1 -40 2 -68 6 -49 6 -49 7 18 2 65 -2 85 -9 50z"/>
<path d="M2548 2308 c-2 -7 -1 -35 3 -63 l6 -50 1 63 c2 59 -1 76 -10 50z"/>
<path d="M2367 2279 c7 -9 10 -19 6 -22 -3 -4 -1 -7 5 -7 17 0 15 16 -5 31
-16 12 -17 12 -6 -2z"/>
<path d="M2420 2270 c0 -11 2 -20 4 -20 2 0 6 9 9 20 3 11 1 20 -4 20 -5 0 -9
-9 -9 -20z"/>
<path d="M2602 2278 c-29 -29 3 -79 49 -77 22 1 21 2 -5 8 -39 8 -55 34 -38
61 14 23 12 26 -6 8z"/>
<path d="M2686 2275 c4 -8 8 -15 10 -15 2 0 4 7 4 15 0 8 -4 15 -10 15 -5 0
-7 -7 -4 -15z"/>
<path d="M3003 2245 c0 -27 2 -38 4 -22 2 15 2 37 0 50 -2 12 -4 0 -4 -28z"/>
<path d="M3072 2278 c-30 -30 0 -79 46 -77 l27 1 -29 7 c-39 8 -55 34 -38 61
14 23 12 26 -6 8z"/>
<path d="M3156 2275 c4 -8 8 -15 10 -15 2 0 4 7 4 15 0 8 -4 15 -10 15 -5 0
-7 -7 -4 -15z"/>
<path d="M3210 2270 c-10 -19 1 -60 16 -60 2 0 0 9 -6 20 -8 14 -8 26 0 40 6
11 8 20 6 20 -3 0 -10 -9 -16 -20z"/>
<path d="M3452 2278 c-17 -17 -15 -43 5 -59 15 -13 15 -12 2 9 -11 18 -11 26
-1 42 14 23 12 26 -6 8z"/>
<path d="M3566 2264 c-3 -9 -5 -18 -4 -19 8 -4 108 8 108 14 0 3 -19 5 -41 3
-25 -3 -44 0 -49 8 -5 8 -9 7 -14 -6z"/>
<path d="M1095 2227 c-11 -23 -30 -47 -41 -54 -20 -13 -25 -11 -53 17 -36 37
-40 21 -8 -35 24 -42 57 -56 83 -34 16 13 47 111 42 132 -2 8 -12 -4 -23 -26z"/>
<path d="M2280 2243 c0 -12 3 -14 8 -6 4 6 23 13 42 16 33 4 33 4 -7 5 -35 2
-43 -1 -43 -15z"/>
<path d="M2686 2225 c-3 -8 -1 -15 4 -15 6 0 10 7 10 15 0 8 -2 15 -4 15 -2 0
-6 -7 -10 -15z"/>
<path d="M3156 2225 c-3 -8 -1 -15 4 -15 6 0 10 7 10 15 0 8 -2 15 -4 15 -2 0
-6 -7 -10 -15z"/>
<path d="M2323 2203 c9 -2 23 -2 30 0 6 3 -1 5 -18 5 -16 0 -22 -2 -12 -5z"/>
<path d="M3253 2203 c9 -2 23 -2 30 0 6 3 -1 5 -18 5 -16 0 -22 -2 -12 -5z"/>
<path d="M3488 2203 c6 -2 18 -2 25 0 6 3 1 5 -13 5 -14 0 -19 -2 -12 -5z"/>
<path d="M3608 2203 c6 -2 18 -2 25 0 6 3 1 5 -13 5 -14 0 -19 -2 -12 -5z"/>
</g>
</svg>
