<?xml version="1.0" encoding="iso-8859-1"?>
<!-- Uploaded to: SVG Repo, www.svgrepo.com, Generator: SVG Repo Mixer Tools -->
<svg version="1.1" id="Layer_1" xmlns="http://www.w3.org/2000/svg" xmlns:xlink="http://www.w3.org/1999/xlink" 
	 viewBox="0 0 507.542 507.542" xml:space="preserve">
<path style="fill:#B2DFDB;" d="M36.651,116.28l-11.6-31.6c-1.6-4-5.2-6.4-9.2-6.4c-1.2,0-2.4,0.4-3.6,0.8c-2.4,0.8-4.4,2.8-5.6,5.2
	c-1.2,2.4-1.2,5.2-0.4,7.6l11.6,31.6c1.6,3.6,5.2,6.4,9.6,6.4c1.2,0,2.4-0.4,3.2-0.8c2.4-0.8,4.4-2.8,5.6-5.2
	C37.451,121.48,37.451,118.68,36.651,116.28z"/>
<rect x="206.251" y="253.88" style="fill:#78909C;" width="95.6" height="118"/>
<polygon style="fill:#BCAAA4;" points="146.251,411.48 360.251,411.48 315.451,373.88 309.051,373.88 199.051,373.88 
	191.451,373.88 "/>
<path style="fill:#FFCC80;" d="M212.651,191.88c-2.4,0-4,2-4,4c0,2.4,2,4,4,4h81.6c2.4,0,4-2,4-4c0-2.4-2-4-4-4H212.651z"/>
<rect x="101.851" y="414.28" style="fill:#616161;" width="304" height="15.2"/>
<path style="fill:#42A5F5;" d="M497.051,328.28l-170.8-98.8c-1.2-0.8-3.2-1.6-4.8-1.6h-115.2h-0.8l-148.8-85.6
	c-1.6-0.8-3.2-1.2-4.8-1.2c-3.6,0-6.8,2-8.8,5.2c-1.2,2.4-1.6,4.8-0.8,7.6c0.8,2.4,2.4,4.8,4.8,6l151.6,87.2
	c1.6,0.8,3.6,1.2,4.8,1.2h115.2c0,0,0.8,0.4,1.2,0.4l168,97.2c1.6,0.8,3.2,1.2,4.8,1.2l0,0c3.6,0,6.8-2,8.8-4.8
	C503.451,337.08,501.451,331.08,497.051,328.28z"/>
<path d="M488.251,352.28c-1.2,0-2.8-0.4-4.4-1.2l-167.2-95.2h-114.4c-2.8,0-4.8-1.6-6.8-2.8c-0.4-0.4-0.8-0.4-1.2-0.8l-151.6-88
	c-3.6-2-6.4-5.6-7.2-9.6c-1.2-4-0.4-8.8,1.6-12.4c2-3.2,5.2-5.6,8.8-6.8c4.4-1.2,8.8-0.4,12.8,2l148,86.4h114.4c0.4,0,0.8,0,1.2,0
	c1.6,0,4-0.4,6.4,1.2l170.8,98c7.6,4.4,10.4,14,6,21.6c-2.8,4.8-8,7.6-13.6,7.6c-0.4,0-0.8,0-1.2,0
	C489.851,352.28,489.051,352.28,488.251,352.28z M317.851,248.28c0.8,0,1.2,0,2,0.4l168,95.6c0.4,0,1.2,0,1.6,0c0.8,0,1.6,0,2,0
	c3.2,0,5.6-1.2,6.8-3.6c2-3.6,0.8-8.4-2.8-10.4l-170.8-98c-0.4,0-1.2,0-2,0s-1.2,0-2,0h-115.2c-0.8,0-1.6,0-2-0.4l-148.8-86.8
	c-2.4-1.2-4.8-1.6-6.8-1.2c-1.6,0.4-3.2,1.6-4,2.8c-1.2,2-1.2,4-0.8,6.4c0.4,2,2,4,3.6,4.8l151.6,88c0.4,0.4,1.2,0.8,1.6,1.2
	c0.8,0.4,2,1.2,2.4,1.2H317.851z"/>
<path d="M27.451,134.68c-6.4,0-12.4-4-14.8-10.4l-11.6-31.6c-3.2-8,1.2-17.2,9.2-20.4c4-1.6,8.4-1.2,12,0.4c4,1.6,6.8,4.8,8.4,8.8
	l11.6,31.6c1.6,4,1.2,8.4-0.4,12c-1.6,4-4.8,6.8-8.8,8.4C31.051,134.28,29.451,134.68,27.451,134.68z M15.851,79.48
	c-0.8,0-2,0-2.8,0.4c-4,1.6-6,6-4.8,10.4l11.6,31.6c1.6,4,6.4,6,10,4.4c2-0.8,3.6-2.4,4.4-4c0.8-2,0.8-4,0-6l-11.6-31.6
	c-0.8-2-2.4-3.6-4-4.4C17.851,79.88,17.051,79.48,15.851,79.48z"/>
<path d="M303.851,376.28h-100c-2.4,0-4-1.6-4-4v-118c0-2.4,1.6-4,4-4s4,1.6,4,4v114h92v-114c0-2.4,1.6-4,4-4s4,1.6,4,4v118
	C307.851,374.28,306.251,376.28,303.851,376.28z"/>
<path d="M407.851,436.28h-308c-2.4,0-4-1.6-4-4v-20c0-2.4,1.6-4,4-4h308c2.4,0,4,1.6,4,4v20
	C411.851,434.28,410.251,436.28,407.851,436.28z M103.851,428.28h300v-12h-300V428.28z"/>
<path d="M141.451,415.48c-1.2,0-2.4-0.4-3.2-1.6c-1.2-1.6-0.8-4.4,0.8-5.6l52-39.6c0.8-0.4,1.6-0.8,2.4-0.8h119.6
	c0.8,0,1.6,0.4,2.4,0.8l52,39.2c1.6,1.2,2,4,0.8,5.6s-4,2-5.6,0.8l-50.8-38.4h-116.8l-50.8,38.8
	C143.451,415.48,142.651,415.48,141.451,415.48z"/>
<path d="M293.451,208.28h-79.6c-6.4,0-12-5.2-12-12s5.2-12,12-12h79.6c6.4,0,12,5.2,12,12S300.251,208.28,293.451,208.28z
	 M214.251,192.28c-2,0-4,1.6-4,4s1.6,4,4,4h79.6c2,0,4-1.6,4-4s-1.6-4-4-4H214.251z"/>
<path d="M215.851,230.28c-2.4,0-4-1.6-4-4v-20c0-2.4,1.6-4,4-4s4,1.6,4,4v20C219.851,228.28,218.251,230.28,215.851,230.28z"/>
<path d="M287.851,230.28c-2.4,0-4-1.6-4-4v-20c0-2.4,1.6-4,4-4s4,1.6,4,4v20C291.851,228.28,290.251,230.28,287.851,230.28z"/>
</svg>