<?xml version="1.0" encoding="iso-8859-1"?>
<!-- Uploaded to: SVG Repo, www.svgrepo.com, Generator: SVG Repo Mixer Tools -->
<svg height="800px" width="800px" version="1.1" id="Layer_1" xmlns="http://www.w3.org/2000/svg" xmlns:xlink="http://www.w3.org/1999/xlink" 
	 viewBox="0 0 141.74 141.74" xml:space="preserve">
<g>
	<circle style="fill:#00C853;" cx="70.87" cy="70.87" r="70.87"/>
	<path style="fill:#FFFFFF;" d="M105.774,44.747c-1.391-7.904-9.778-13.342-18.174-11.467c-7.898,1.764-13.326,7.628-21.731,4.699
		c-4.318-1.505-8.644-3.213-13.035-4.485c-5.543-1.606-12.111,1.668-15.264,6.371c-3.139,4.683-1.377,10.869-0.675,16.021
		c0.939,6.893,1.879,13.786,2.818,20.679c0.631,4.628,1.363,9.255,1.834,13.903c0.495,4.876,0.566,10.683,4.14,14.481
		c2.777,2.952,11.825,6.698,12.8,0.436c1.051-6.749-0.642-13.974,0.042-20.766c1.475-14.649,24.057-13.607,24.778,0.945
		c0.319,6.427-1.16,13.621,0,19.953c1.208,6.594,10.967,1.858,13.507-1.391c2.141-2.738,2.34-5.878,2.755-9.13
		c1.002-7.863,2.142-15.711,3.212-23.564c1.03-7.556,2.16-15.106,3.09-22.675C106.041,47.369,105.999,46.026,105.774,44.747z
		 M53.731,42.286c-5,6.538-5.354,17.757-5.274,22.286c0.006,0.35-0.674,0.467-0.827,0.144c-9.314-19.74,2.456-22.485,5.708-22.866
		C53.682,41.81,53.905,42.058,53.731,42.286z"/>
</g>
</svg>